# File produced by Open Asset Import Library (http://www.assimp.sf.net)
# (assimp v3.1.187496374)

mtllib dolarr.obj.mtl

# 230 vertex positions
v  3.85614 -1.43377 0
v  2.34737 -2.05714 0
v  2.21871 -1.68434 0
v  3.55205 -0.724828 0
v  3.95556 -2.07548 0
v  2.3883 -2.21604 0
v  3.94971 -2.47884 0
v  2.3883 -2.72941 0
v  3.88538 -3.04721 0
v  3.67485 -3.69503 0
v  2.16608 -3.32834 0
v  3.32982 -4.25118 0
v  2.9731 -4.62399 0
v  1.71579 -3.81727 0
v  2.73918 -4.80122 0
v  1.90877 -5.2107 0
v  2.42339 -4.97846 0
v  1.23041 -4.09228 0
v  1.35322 -5.39404 0
v  0.949708 -5.48571 0
v  0.423392 -4.33063 0
v  0.347368 -5.56516 0
v  -0.483041 -4.35508 0
v  0.394152 -4.18396 0
v  -0.500585 -8.10756 0
v  -0.564912 -5.57128 0
v  0.347368 -8.16257 0
v  -1.24912 -5.51627 0
v  -1.25497 -4.28785 0
v  -1.78713 -5.44293 0
v  -1.71696 -4.20229 0
v  -2.40702 -5.31459 0
v  -2.36023 -4.02506 0
v  -3.05614 -5.13125 0
v  -2.98012 -3.78671 0
v  -3.52982 -4.97235 0
v  -4.04444 -3.9945 0
v  -3.38363 -3.58503 0
v  -4.0152 -4.789 0
v  -4.04444 -3.26112 0
v  -4.0269 -3.2 0
v  0.37076 -3.7806 0
v  0.347368 -2.63163 0
v  -0.483041 -0.419251 0
v  0.347368 -0.57204 0
v  0.347368 0.931398 0
v  -0.523977 1.10252 0
v  -1.00936 -0.297021 0
v  1.07836 0.772498 0
v  0.762573 -0.669824 0
v  0.353216 3.66937 0
v  -0.523977 3.01543 0
v  -0.82807 1.1453 0
v  -1.10292 1.22475 0
v  -1.90994 -0.0281131 0
v  -1.49474 1.37754 0
v  -2.77544 0.363025 0
v  -1.85146 1.567 0
v  -3.37193 0.851948 0
v  -2.05614 1.70756 0
v  -2.22573 1.87869 0
v  -3.70526 1.31031 0
v  -2.45965 2.33705 0
v  -3.90409 1.76257 0
v  -3.97427 2.01925 0
v  -4.00936 2.31261 0
v  -2.51813 2.9971 0
v  -4.00936 3.12544 0
v  -3.8924 3.69992 0
v  -3.97427 3.4249 0
v  -2.30175 3.64492 0
v  -3.66433 4.20107 0
v  -3.35439 4.65332 0
v  -1.96257 4.07884 0
v  -2.83392 5.13002 0
v  -2.14386 5.48449 0
v  -1.71111 4.24996 0
v  -1.47135 5.69228 0
v  -1.37778 4.39664 0
v  -0.997661 4.52498 0
v  -0.833918 4.56776 0
v  -0.523977 5.89396 0
v  -0.62924 4.59221 0
v  0.347368 7.83743 0
v  0.347368 5.83896 0
v  -0.594152 4.57998 0
v  -0.523977 7.83743 0
v  0.733333 5.83896 0
v  0.446784 4.62277 0
v  -0.57076 4.45775 0
v  0.405848 4.5372 0
v  0.587135 4.61665 0
v  1.04327 5.80229 0
v  0.967251 4.54943 0
v  1.62222 5.71062 0
v  1.62807 4.39053 0
v  2.23626 5.58228 0
v  2.35322 4.15829 0
v  2.61637 5.48449 0
v  3.17193 4.17051 0
v  2.86784 3.96272 0
v  3.17778 5.31337 0
v  3.15439 3.9505 0
v  3.05497 3.87716 0
v  3.11345 3.87105 0
v  0.37076 4.23774 0
v  -0.547368 4.1094 0
v  1.64561 0.595264 0
v  0.961404 -0.743163 0
v  1.49942 -0.993736 0
v  1.97895 0.473033 0
v  2.47018 0.246906 0
v  1.77427 -1.15875 0
v  3.02573 -0.132009 0
v  2.03743 -1.3971 0
v  2.21871 -1.68434 1
v  2.34737 -2.05714 1
v  3.85614 -1.43377 1
v  3.55205 -0.724828 1
v  2.03743 -1.3971 1
v  2.3883 -2.21604 1
v  3.95556 -2.07548 1
v  3.94971 -2.47884 1
v  2.3883 -2.72941 1
v  3.88538 -3.04721 1
v  3.67485 -3.69503 1
v  2.16608 -3.32834 1
v  3.32982 -4.25118 1
v  1.71579 -3.81727 1
v  2.9731 -4.62399 1
v  2.73918 -4.80122 1
v  2.42339 -4.97846 1
v  1.90877 -5.2107 1
v  1.23041 -4.09228 1
v  1.35322 -5.39404 1
v  0.949708 -5.48571 1
v  0.423392 -4.33063 1
v  0.347368 -5.56516 1
v  0.394152 -4.18396 1
v  -0.483041 -4.35508 1
v  -0.564912 -5.57128 1
v  -0.500585 -8.10756 1
v  0.347368 -8.16257 1
v  -1.24912 -5.51627 1
v  -1.78713 -5.44293 1
v  -1.25497 -4.28785 1
v  -2.40702 -5.31459 1
v  -1.71696 -4.20229 1
v  -2.36023 -4.02506 1
v  -3.05614 -5.13125 1
v  -2.98012 -3.78671 1
v  -3.52982 -4.97235 1
v  -3.38363 -3.58503 1
v  -4.04444 -3.9945 1
v  -4.0152 -4.789 1
v  -4.04444 -3.26112 1
v  -4.0269 -3.2 1
v  0.37076 -3.7806 1
v  0.347368 -2.63163 1
v  -0.483041 -0.419251 1
v  0.347368 -0.57204 1
v  0.347368 0.931398 1
v  -1.00936 -0.297021 1
v  -0.523977 1.10252 1
v  1.07836 0.772498 1
v  0.762573 -0.669824 1
v  -0.523977 3.01543 1
v  0.353216 3.66937 1
v  -0.82807 1.1453 1
v  -1.90994 -0.0281131 1
v  -1.10292 1.22475 1
v  -1.85146 1.567 1
v  -2.77544 0.363025 1
v  -1.49474 1.37754 1
v  -2.05614 1.70756 1
v  -3.37193 0.851948 1
v  -2.22573 1.87869 1
v  -3.70526 1.31031 1
v  -2.45965 2.33705 1
v  -3.90409 1.76257 1
v  -4.00936 2.31261 1
v  -3.97427 2.01925 1
v  -2.51813 2.9971 1
v  -4.00936 3.12544 1
v  -3.97427 3.4249 1
v  -3.8924 3.69992 1
v  -2.30175 3.64492 1
v  -3.66433 4.20107 1
v  -1.96257 4.07884 1
v  -3.35439 4.65332 1
v  -2.83392 5.13002 1
v  -2.14386 5.48449 1
v  -1.71111 4.24996 1
v  -1.37778 4.39664 1
v  -1.47135 5.69228 1
v  -0.997661 4.52498 1
v  -0.833918 4.56776 1
v  -0.523977 5.89396 1
v  -0.62924 4.59221 1
v  0.347368 5.83896 1
v  0.347368 7.83743 1
v  -0.594152 4.57998 1
v  -0.523977 7.83743 1
v  0.446784 4.62277 1
v  0.733333 5.83896 1
v  0.405848 4.5372 1
v  -0.57076 4.45775 1
v  0.587135 4.61665 1
v  1.04327 5.80229 1
v  0.967251 4.54943 1
v  1.62222 5.71062 1
v  1.62807 4.39053 1
v  2.23626 5.58228 1
v  2.35322 4.15829 1
v  2.61637 5.48449 1
v  2.86784 3.96272 1
v  3.17193 4.17051 1
v  3.17778 5.31337 1
v  3.05497 3.87716 1
v  3.15439 3.9505 1
v  3.11345 3.87105 1
v  0.37076 4.23774 1
v  -0.547368 4.1094 1
v  0.961404 -0.743163 1
v  1.64561 0.595264 1
v  1.49942 -0.993736 1
v  1.97895 0.473033 1
v  2.47018 0.246906 1
v  1.77427 -1.15875 1
v  3.02573 -0.132009 1

# 0 UV coordinates

# 109 vertex normals
vn 0 0 -1
vn 0 0 1
vn 0.13077 -0.991413 0
vn 0.221544 -0.97515 0
vn 0.313397 -0.949622 0
vn 0.411336 -0.911484 0
vn 0.489428 -0.872044 0
vn 0.603909 -0.797053 0
vn 0.722516 -0.691355 0
vn 0.849755 -0.527178 0
vn 0.951041 -0.309065 0
vn 0.993656 -0.11246 0
vn 0.999895 -0.0144965 0
vn 0.988211 0.153096 0
vn 0.919022 0.394207 0
vn 0.747807 0.663917 0
vn 0.563466 0.826139 0
vn 0.418153 0.908377 0
vn 0.344276 0.938869 0
vn 0.298227 0.954495 0
vn 0.212415 0.97718 0
vn 0.999998 -0.00213587 0
vn 0.999524 -0.0308521 0
vn 0.993206 -0.116372 0
vn 0.902073 -0.431584 0
vn -0.0435035 -0.999053 0
vn -0.174156 -0.984718 0
vn -0.233795 -0.972286 0
vn -0.305004 -0.952351 0
vn -0.355239 -0.934775 0
vn -0.415817 -0.909448 0
vn -0.103941 -0.994583 0
vn 0.888943 -0.458018 0
vn 0.996836 -0.079487 0
vn 0.999987 -0.00511689 0
vn 0.291569 0.95655 0
vn 0.249137 0.968468 0
vn 0.204593 0.978847 0
vn 0.156396 0.987694 0
vn 0.117491 0.993074 0
vn 0 1 0
vn 1 0 0
vn -1 0 0
vn -0.208219 0.978082 0
vn -0.295208 0.955433 0
vn -0.456922 0.889507 0
vn -0.67542 0.737433 0
vn -0.824878 0.565311 0
vn -0.910177 0.414219 0
vn -0.958433 0.285319 0
vn -0.993206 0.116372 0
vn -0.992923 -0.118762 0
vn -0.964601 -0.263714 0
vn -0.915435 -0.402465 0
vn -0.808756 -0.588145 0
vn -0.633925 -0.773395 0
vn -0.411822 -0.911264 0
vn -0.28611 -0.958197 0
vn -0.226218 -0.974077 0
vn 0.086761 0.996229 0
vn 0.182106 0.983279 0
vn 0.265622 0.964077 0
vn 0.358892 0.933379 0
vn 0.447083 0.894493 0
vn 0.513575 0.858045 0
vn -0.961181 0.275918 0
vn -0.999323 -0.0367778 0
vn -0.353367 -0.935485 0
vn -0.318038 -0.948078 0
vn -0.271817 -0.962349 0
vn -0.202743 -0.979232 0
vn -0.135065 -0.990837 0
vn -0.0801317 -0.996784 0
vn -0.999679 -0.0253547 0
vn -0.0647305 -0.997903 0
vn 0.139311 0.990249 0
vn 0.277694 0.96067 0
vn 0.363307 0.93167 0
vn 0.469054 0.88317 0
vn 0.566116 0.824326 0
vn 0.71028 0.703919 0
vn 0.890716 0.45456 0
vn 0.996098 0.0882535 0
vn 0.948493 -0.316799 0
vn 0.787864 -0.615849 0
vn 0.5626 -0.826729 0
vn 0.402762 -0.915305 0
vn 0.319897 -0.947452 0
vn 0.252783 -0.967523 0
vn 0.118594 -0.992943 0
vn -0.328968 -0.944341 0
vn -0.982176 -0.187963 0
vn -0.997753 -0.066998 0
vn -0.999771 -0.0213777 0
vn 0.980703 0.195501 0
vn 0.998323 0.0578949 0
vn 0.999793 0.0203547 0
vn -0.229238 -0.97337 0
vn -0.346059 -0.938213 0
vn -0.422195 -0.906505 0
vn -0.514723 -0.857356 0
vn -0.671308 -0.741179 0
vn -0.845661 -0.53372 0
vn -0.945293 -0.326222 0
vn -0.968382 -0.249474 0
vn -0.937547 0.34786 0
vn -0.735569 0.67745 0
vn -0.492972 0.870045 0
vn -0.283251 0.959046 0

# Mesh 'OpenSCAD_Model' with 464 faces
g OpenSCAD_Model
usemtl DefaultMaterial
f  1//1 2//1 3//1
f  4//1 1//1 3//1
f  5//1 2//1 1//1
f  5//1 6//1 2//1
f  7//1 6//1 5//1
f  7//1 8//1 6//1
f  8//1 7//1 9//1
f  9//1 10//1 8//1
f  8//1 10//1 11//1
f  10//1 12//1 11//1
f  11//1 13//1 14//1
f  11//1 12//1 13//1
f  13//1 15//1 14//1
f  16//1 14//1 17//1
f  18//1 14//1 16//1
f  14//1 15//1 17//1
f  16//1 19//1 18//1
f  19//1 20//1 18//1
f  18//1 20//1 21//1
f  20//1 22//1 21//1
f  21//1 23//1 24//1
f  21//1 22//1 23//1
f  25//1 26//1 22//1
f  26//1 23//1 22//1
f  27//1 25//1 22//1
f  28//1 23//1 26//1
f  29//1 28//1 30//1
f  29//1 23//1 28//1
f  31//1 29//1 30//1
f  31//1 30//1 32//1
f  32//1 33//1 31//1
f  33//1 32//1 34//1
f  35//1 33//1 34//1
f  35//1 34//1 36//1
f  37//1 38//1 35//1
f  37//1 35//1 36//1
f  37//1 36//1 39//1
f  37//1 40//1 38//1
f  40//1 41//1 38//1
f  24//1 23//1 42//1
f  42//1 23//1 43//1
f  43//1 23//1 44//1
f  45//1 43//1 44//1
f  45//1 44//1 46//1
f  47//1 44//1 48//1
f  46//1 44//1 47//1
f  49//1 45//1 46//1
f  50//1 45//1 49//1
f  51//1 46//1 52//1
f  52//1 46//1 47//1
f  47//1 48//1 53//1
f  54//1 48//1 55//1
f  54//1 53//1 48//1
f  55//1 56//1 54//1
f  55//1 57//1 58//1
f  56//1 55//1 58//1
f  57//1 59//1 60//1
f  60//1 58//1 57//1
f  60//1 59//1 61//1
f  61//1 59//1 62//1
f  61//1 62//1 63//1
f  63//1 62//1 64//1
f  63//1 65//1 66//1
f  67//1 63//1 66//1
f  65//1 63//1 64//1
f  68//1 67//1 66//1
f  69//1 67//1 70//1
f  70//1 67//1 68//1
f  69//1 71//1 67//1
f  72//1 71//1 69//1
f  73//1 74//1 71//1
f  72//1 73//1 71//1
f  73//1 75//1 74//1
f  76//1 74//1 75//1
f  74//1 76//1 77//1
f  76//1 78//1 79//1
f  77//1 76//1 79//1
f  79//1 78//1 80//1
f  80//1 78//1 81//1
f  81//1 78//1 82//1
f  83//1 81//1 82//1
f  84//1 85//1 82//1
f  82//1 86//1 83//1
f  82//1 87//1 84//1
f  86//1 82//1 85//1
f  85//1 88//1 89//1
f  86//1 85//1 89//1
f  90//1 86//1 91//1
f  86//1 89//1 91//1
f  89//1 88//1 92//1
f  88//1 93//1 92//1
f  93//1 94//1 92//1
f  95//1 94//1 93//1
f  96//1 94//1 95//1
f  96//1 95//1 97//1
f  98//1 96//1 97//1
f  98//1 97//1 99//1
f  100//1 101//1 98//1
f  102//1 98//1 99//1
f  102//1 100//1 98//1
f  100//1 103//1 101//1
f  103//1 104//1 101//1
f  103//1 105//1 104//1
f  90//1 91//1 106//1
f  90//1 106//1 107//1
f  107//1 106//1 51//1
f  52//1 107//1 51//1
f  108//1 109//1 49//1
f  50//1 49//1 109//1
f  110//1 109//1 108//1
f  108//1 111//1 110//1
f  112//1 110//1 111//1
f  112//1 113//1 110//1
f  112//1 114//1 113//1
f  114//1 115//1 113//1
f  114//1 4//1 115//1
f  4//1 3//1 115//1
f  116//2 117//2 118//2
f  116//2 118//2 119//2
f  120//2 116//2 119//2
f  117//2 121//2 122//2
f  118//2 117//2 122//2
f  122//2 121//2 123//2
f  121//2 124//2 123//2
f  125//2 123//2 124//2
f  124//2 126//2 125//2
f  127//2 126//2 124//2
f  127//2 128//2 126//2
f  129//2 130//2 127//2
f  130//2 128//2 127//2
f  129//2 131//2 130//2
f  132//2 129//2 133//2
f  133//2 129//2 134//2
f  132//2 131//2 129//2
f  134//2 135//2 133//2
f  134//2 136//2 135//2
f  137//2 136//2 134//2
f  137//2 138//2 136//2
f  139//2 140//2 137//2
f  140//2 138//2 137//2
f  138//2 141//2 142//2
f  138//2 140//2 141//2
f  138//2 142//2 143//2
f  141//2 140//2 144//2
f  145//2 144//2 146//2
f  144//2 140//2 146//2
f  147//2 145//2 148//2
f  145//2 146//2 148//2
f  148//2 149//2 147//2
f  150//2 147//2 149//2
f  150//2 149//2 151//2
f  152//2 150//2 151//2
f  151//2 153//2 154//2
f  152//2 151//2 154//2
f  155//2 152//2 154//2
f  153//2 156//2 154//2
f  153//2 157//2 156//2
f  158//2 140//2 139//2
f  159//2 140//2 158//2
f  160//2 140//2 159//2
f  160//2 159//2 161//2
f  162//2 160//2 161//2
f  163//2 160//2 164//2
f  164//2 160//2 162//2
f  162//2 161//2 165//2
f  165//2 161//2 166//2
f  167//2 162//2 168//2
f  164//2 162//2 167//2
f  169//2 163//2 164//2
f  170//2 163//2 171//2
f  163//2 169//2 171//2
f  172//2 173//2 170//2
f  172//2 170//2 174//2
f  171//2 174//2 170//2
f  173//2 172//2 175//2
f  175//2 176//2 173//2
f  177//2 176//2 175//2
f  178//2 176//2 177//2
f  179//2 178//2 177//2
f  180//2 178//2 179//2
f  181//2 182//2 179//2
f  181//2 179//2 183//2
f  180//2 179//2 182//2
f  181//2 183//2 184//2
f  185//2 183//2 186//2
f  184//2 183//2 185//2
f  183//2 187//2 186//2
f  186//2 187//2 188//2
f  187//2 189//2 190//2
f  187//2 190//2 188//2
f  191//2 189//2 192//2
f  189//2 191//2 190//2
f  193//2 192//2 189//2
f  194//2 195//2 192//2
f  194//2 192//2 193//2
f  196//2 195//2 194//2
f  197//2 195//2 196//2
f  198//2 195//2 197//2
f  198//2 197//2 199//2
f  198//2 200//2 201//2
f  199//2 202//2 198//2
f  201//2 203//2 198//2
f  200//2 198//2 202//2
f  204//2 205//2 200//2
f  204//2 200//2 202//2
f  206//2 202//2 207//2
f  206//2 204//2 202//2
f  208//2 205//2 204//2
f  208//2 209//2 205//2
f  208//2 210//2 209//2
f  209//2 210//2 211//2
f  211//2 210//2 212//2
f  213//2 211//2 212//2
f  213//2 212//2 214//2
f  215//2 213//2 214//2
f  214//2 216//2 217//2
f  215//2 214//2 218//2
f  214//2 217//2 218//2
f  216//2 219//2 220//2
f  216//2 220//2 217//2
f  219//2 221//2 220//2
f  222//2 206//2 207//2
f  223//2 222//2 207//2
f  168//2 222//2 223//2
f  168//2 223//2 167//2
f  224//2 165//2 166//2
f  225//2 224//2 226//2
f  165//2 224//2 225//2
f  226//2 227//2 225//2
f  227//2 226//2 228//2
f  226//2 229//2 228//2
f  229//2 230//2 228//2
f  229//2 120//2 230//2
f  120//2 119//2 230//2
f  20//3 138//3 22//3
f  20//3 136//3 138//3
f  19//4 136//4 20//4
f  19//4 135//4 136//4
f  16//5 135//5 19//5
f  16//5 133//5 135//5
f  17//6 133//6 16//6
f  17//6 132//6 133//6
f  15//7 132//7 17//7
f  15//7 131//7 132//7
f  13//8 131//8 15//8
f  13//8 130//8 131//8
f  12//9 130//9 13//9
f  12//9 128//9 130//9
f  10//10 128//10 12//10
f  10//10 126//10 128//10
f  9//11 126//11 10//11
f  9//11 125//11 126//11
f  7//12 125//12 9//12
f  7//12 123//12 125//12
f  5//13 123//13 7//13
f  5//13 122//13 123//13
f  1//14 122//14 5//14
f  1//14 118//14 122//14
f  4//15 118//15 1//15
f  4//15 119//15 118//15
f  114//16 119//16 4//16
f  114//16 230//16 119//16
f  112//17 230//17 114//17
f  112//17 228//17 230//17
f  111//18 228//18 112//18
f  111//18 227//18 228//18
f  108//19 227//19 111//19
f  108//19 225//19 227//19
f  49//20 225//20 108//20
f  49//20 165//20 225//20
f  46//21 165//21 49//21
f  46//21 162//21 165//21
f  51//22 162//22 46//22
f  51//22 168//22 162//22
f  106//23 168//23 51//23
f  106//23 222//23 168//23
f  91//24 222//24 106//24
f  91//24 206//24 222//24
f  89//25 206//25 91//25
f  89//25 204//25 206//25
f  92//26 204//26 89//26
f  92//26 208//26 204//26
f  94//27 208//27 92//27
f  94//27 210//27 208//27
f  96//28 210//28 94//28
f  96//28 212//28 210//28
f  98//29 212//29 96//29
f  98//29 214//29 212//29
f  101//30 214//30 98//30
f  101//30 216//30 214//30
f  104//31 216//31 101//31
f  104//31 219//31 216//31
f  105//32 219//32 104//32
f  105//32 221//32 219//32
f  103//33 221//33 105//33
f  103//33 220//33 221//33
f  100//34 220//34 103//34
f  100//34 217//34 220//34
f  102//35 217//35 100//35
f  102//35 218//35 217//35
f  99//36 218//36 102//36
f  99//36 215//36 218//36
f  97//37 215//37 99//37
f  97//37 213//37 215//37
f  95//38 213//38 97//38
f  95//38 211//38 213//38
f  93//39 211//39 95//39
f  93//39 209//39 211//39
f  88//40 209//40 93//40
f  88//40 205//40 209//40
f  85//41 205//41 88//41
f  85//41 200//41 205//41
f  84//42 200//42 85//42
f  84//42 201//42 200//42
f  87//41 201//41 84//41
f  87//41 203//41 201//41
f  82//43 203//43 87//43
f  82//43 198//43 203//43
f  78//44 198//44 82//44
f  78//44 195//44 198//44
f  76//45 195//45 78//45
f  76//45 192//45 195//45
f  75//46 192//46 76//46
f  75//46 191//46 192//46
f  73//47 191//47 75//47
f  73//47 190//47 191//47
f  72//48 190//48 73//48
f  72//48 188//48 190//48
f  69//49 188//49 72//49
f  69//49 186//49 188//49
f  70//50 186//50 69//50
f  70//50 185//50 186//50
f  68//51 185//51 70//51
f  68//51 184//51 185//51
f  66//43 184//43 68//43
f  66//43 181//43 184//43
f  65//52 181//52 66//52
f  65//52 182//52 181//52
f  64//53 182//53 65//53
f  64//53 180//53 182//53
f  62//54 180//54 64//54
f  62//54 178//54 180//54
f  59//55 178//55 62//55
f  59//55 176//55 178//55
f  57//56 176//56 59//56
f  57//56 173//56 176//56
f  55//57 173//57 57//57
f  55//57 170//57 173//57
f  48//58 170//58 55//58
f  48//58 163//58 170//58
f  44//59 163//59 48//59
f  44//59 160//59 163//59
f  23//43 160//43 44//43
f  23//43 140//43 160//43
f  29//60 140//60 23//60
f  29//60 146//60 140//60
f  31//61 146//61 29//61
f  31//61 148//61 146//61
f  33//62 148//62 31//62
f  33//62 149//62 148//62
f  35//63 149//63 33//63
f  35//63 151//63 149//63
f  38//64 151//64 35//64
f  38//64 153//64 151//64
f  41//65 153//65 38//65
f  41//65 157//65 153//65
f  40//66 157//66 41//66
f  40//66 156//66 157//66
f  37//43 156//43 40//43
f  37//43 154//43 156//43
f  39//67 154//67 37//67
f  39//67 155//67 154//67
f  36//68 155//68 39//68
f  36//68 152//68 155//68
f  34//69 152//69 36//69
f  34//69 150//69 152//69
f  32//70 150//70 34//70
f  32//70 147//70 150//70
f  30//71 147//71 32//71
f  30//71 145//71 147//71
f  28//72 145//72 30//72
f  28//72 144//72 145//72
f  26//73 144//73 28//73
f  26//73 141//73 144//73
f  25//74 141//74 26//74
f  25//74 142//74 141//74
f  27//75 142//75 25//75
f  27//75 143//75 142//75
f  22//42 143//42 27//42
f  22//42 138//42 143//42
f  53//76 169//76 47//76
f  164//76 47//76 169//76
f  54//77 171//77 53//77
f  169//77 53//77 171//77
f  56//78 174//78 54//78
f  171//78 54//78 174//78
f  58//79 172//79 56//79
f  174//79 56//79 172//79
f  60//80 175//80 58//80
f  172//80 58//80 175//80
f  61//81 177//81 60//81
f  175//81 60//81 177//81
f  63//82 179//82 61//82
f  177//82 61//82 179//82
f  67//83 183//83 63//83
f  179//83 63//83 183//83
f  71//84 187//84 67//84
f  183//84 67//84 187//84
f  74//85 189//85 71//85
f  187//85 71//85 189//85
f  77//86 193//86 74//86
f  189//86 74//86 193//86
f  79//87 194//87 77//87
f  193//87 77//87 194//87
f  80//88 196//88 79//88
f  194//88 79//88 196//88
f  81//89 197//89 80//89
f  196//89 80//89 197//89
f  83//90 199//90 81//90
f  197//90 81//90 199//90
f  86//91 202//91 83//91
f  199//91 83//91 202//91
f  90//92 207//92 86//92
f  202//92 86//92 207//92
f  107//93 223//93 90//93
f  207//93 90//93 223//93
f  52//94 167//94 107//94
f  223//94 107//94 167//94
f  47//43 164//43 52//43
f  167//43 52//43 164//43
f  24//95 139//95 21//95
f  137//95 21//95 139//95
f  42//96 158//96 24//96
f  139//96 24//96 158//96
f  43//97 159//97 42//97
f  158//97 42//97 159//97
f  45//42 161//42 43//42
f  159//42 43//42 161//42
f  50//98 166//98 45//98
f  161//98 45//98 166//98
f  109//99 224//99 50//99
f  166//99 50//99 224//99
f  110//100 226//100 109//100
f  224//100 109//100 226//100
f  113//101 229//101 110//101
f  226//101 110//101 229//101
f  115//102 120//102 113//102
f  229//102 113//102 120//102
f  3//103 116//103 115//103
f  120//103 115//103 116//103
f  2//104 117//104 3//104
f  116//104 3//104 117//104
f  6//105 121//105 2//105
f  117//105 2//105 121//105
f  8//43 124//43 6//43
f  121//43 6//43 124//43
f  11//106 127//106 8//106
f  124//106 8//106 127//106
f  14//107 129//107 11//107
f  127//107 11//107 129//107
f  18//108 134//108 14//108
f  129//108 14//108 134//108
f  21//109 137//109 18//109
f  134//109 18//109 137//109

